<svg xmlns="http://www.w3.org/2000/svg" xmlns:xlink="http://www.w3.org/1999/xlink" width="500" zoomAndPan="magnify" viewBox="0 0 375 374.999991" height="500" preserveAspectRatio="xMidYMid meet" version="1.0"><defs><g/><clipPath id="e68e9b2113"><path d="M 65 4.109375 L 310 4.109375 L 310 268.859375 L 65 268.859375 Z M 65 4.109375 " clip-rule="nonzero"/></clipPath></defs><g clip-path="url(#e68e9b2113)"><path fill="#000000" d="M 307.003906 226.566406 L 274.863281 156.75 C 273.667969 154.15625 271.074219 152.492188 268.21875 152.492188 L 202.183594 152.492188 C 199.957031 152.492188 198.464844 150.195312 199.378906 148.160156 L 215.097656 113.097656 C 216.1875 110.667969 219.625 110.675781 220.707031 113.097656 L 224.183594 120.910156 C 224.789062 122.261719 226.128906 123.136719 227.617188 123.136719 L 253.796875 123.136719 C 256.527344 123.136719 258.34375 120.316406 257.21875 117.835938 L 231.785156 61.613281 C 231.285156 60.515625 230.1875 59.8125 228.984375 59.8125 L 207.292969 59.8125 C 206.082031 59.8125 204.996094 60.515625 204.496094 61.613281 L 134.269531 216.816406 C 133.351562 218.851562 134.835938 221.152344 137.070312 221.152344 L 164.734375 221.152344 C 165.945312 221.152344 167.042969 220.441406 167.535156 219.34375 L 183.003906 184.871094 C 183.496094 183.765625 184.59375 183.054688 185.804688 183.054688 L 249.8125 183.054688 C 251.03125 183.054688 252.136719 183.765625 252.632812 184.878906 L 272.816406 229.339844 C 274.375 232.777344 271.863281 236.679688 268.085938 236.679688 L 107.039062 236.679688 C 103.253906 236.679688 100.738281 232.753906 102.324219 229.316406 L 188.34375 42.46875 C 190.054688 38.753906 193.765625 36.375 197.847656 36.375 L 218.796875 36.375 C 223.050781 36.375 226.5 32.925781 226.5 28.671875 L 226.5 11.804688 C 226.5 7.550781 223.050781 4.097656 218.796875 4.097656 L 189.695312 4.097656 C 178.007812 4.097656 167.300781 10.957031 162.417969 21.578125 L 73.859375 214.300781 L 68.277344 225.976562 C 63.789062 235.332031 64.417969 246.160156 69.945312 254.941406 C 75.472656 263.710938 84.972656 268.957031 95.34375 268.957031 L 279.65625 268.957031 C 289.894531 268.957031 299.332031 263.816406 304.882812 255.214844 C 310.433594 246.605469 311.226562 235.898438 307.003906 226.566406 " fill-opacity="1" fill-rule="nonzero"/></g><g fill="#000000" fill-opacity="1"><g transform="translate(41.024289, 351.595139)"><g><path d="M 26.921875 -46.375 L 45.640625 0 L 34.28125 0 L 30.859375 -9.28125 L 13.203125 -9.28125 L 9.78125 0 L -1.578125 0 L 17.140625 -46.375 Z M 27.265625 -18.546875 L 22.09375 -32.03125 L 21.96875 -32.03125 L 16.8125 -18.546875 Z M 27.265625 -18.546875 "/></g></g></g><g fill="#000000" fill-opacity="1"><g transform="translate(85.080072, 351.595139)"><g><path d="M 3.375 -46.375 L 16.8125 -46.375 C 23.25 -46.375 28.753906 -44.171875 33.328125 -39.765625 C 37.898438 -35.359375 40.1875 -29.84375 40.1875 -23.21875 C 40.1875 -16.539062 37.910156 -11 33.359375 -6.59375 C 28.804688 -2.195312 23.289062 0 16.8125 0 L 3.375 0 Z M 13.9375 -9.4375 L 15.5625 -9.4375 C 19.425781 -9.4375 22.582031 -10.738281 25.03125 -13.34375 C 27.488281 -15.945312 28.738281 -19.21875 28.78125 -23.15625 C 28.78125 -27.09375 27.550781 -30.367188 25.09375 -32.984375 C 22.632812 -35.609375 19.457031 -36.921875 15.5625 -36.921875 L 13.9375 -36.921875 Z M 13.9375 -9.4375 "/></g></g></g><g fill="#000000" fill-opacity="1"><g transform="translate(126.550953, 351.595139)"><g><path d="M 41.703125 0 L 39.515625 -27.484375 L 39.234375 -27.484375 L 29.734375 -0.28125 L 23.4375 -0.28125 L 13.9375 -27.484375 L 13.65625 -27.484375 L 11.46875 0 L 0.90625 0 L 5.0625 -46.375 L 16.296875 -46.375 L 26.578125 -19.609375 L 36.875 -46.375 L 48.109375 -46.375 L 52.265625 0 Z M 41.703125 0 "/></g></g></g><g fill="#000000" fill-opacity="1"><g transform="translate(179.710104, 351.595139)"><g><path d="M 13.9375 -46.375 L 13.9375 0 L 3.375 0 L 3.375 -46.375 Z M 13.9375 -46.375 "/></g></g></g><g fill="#000000" fill-opacity="1"><g transform="translate(197.01773, 351.595139)"><g><path d="M 13.9375 -28.78125 L 13.9375 0 L 3.375 0 L 3.375 -46.375 L 13.9375 -46.375 L 32.375 -17.59375 L 32.484375 -17.59375 L 32.484375 -46.375 L 43.046875 -46.375 L 43.046875 0 L 32.484375 0 L 14.046875 -28.78125 Z M 13.9375 -28.78125 "/></g></g></g><g fill="#000000" fill-opacity="1"><g transform="translate(243.433642, 351.595139)"><g><path d="M 13.9375 -46.375 L 13.9375 0 L 3.375 0 L 3.375 -46.375 Z M 13.9375 -46.375 "/></g></g></g><g fill="#000000" fill-opacity="1"><g transform="translate(260.741268, 351.595139)"><g><path d="M 30.1875 -46.375 L 30.1875 -37.09375 L 13.9375 -37.09375 L 13.9375 -27.875 L 28.9375 -27.875 L 28.9375 -18.609375 L 13.9375 -18.609375 L 13.9375 0 L 3.375 0 L 3.375 -46.375 Z M 30.1875 -46.375 "/></g></g></g><g fill="#000000" fill-opacity="1"><g transform="translate(292.603038, 351.595139)"><g><path d="M -1.6875 -46.375 L 11.015625 -46.375 L 20.6875 -31.53125 L 30.34375 -46.375 L 43.046875 -46.375 L 25.96875 -20.796875 L 25.96875 0 L 15.40625 0 L 15.40625 -20.796875 Z M -1.6875 -46.375 "/></g></g></g></svg>